<?xml version="1.0" encoding="UTF-8"?>
<svg xmlns="http://www.w3.org/2000/svg" xmlns:xlink="http://www.w3.org/1999/xlink" version="1.1" viewBox="0 0 340 188.8">
  <!-- Generator: Adobe Illustrator 29.2.1, SVG Export Plug-In . SVG Version: 2.1.0 Build 116)  -->
  <defs>
    <style>
      .st0 {
      fill: none;
      }

      .st1 {
      fill: #515254;
      }

      .st2 {
      isolation: isolate;
      }

      .st3 {
      fill: #ed1c24;
      }

      .st4 {
      clip-path: url(#clippath-1);
      }

      .st5 {
      clip-path: url(#clippath-3);
      }

      .st6 {
      clip-path: url(#clippath-4);
      }

      .st7 {
      clip-path: url(#clippath-2);
      }

      .st8 {
      fill: url(#linear-gradient2);
      }

      .st8, .st9, .st10, .st11, .st12, .st13, .st14 {
      mix-blend-mode: multiply;
      opacity: .5;
      }

      .st9 {
      fill: url(#linear-gradient1);
      }

      .st10 {
      fill: url(#linear-gradient3);
      }

      .st11 {
      fill: url(#linear-gradient6);
      }

      .st12 {
      fill: url(#linear-gradient4);
      }

      .st13 {
      fill: url(#linear-gradient5);
      }

      .st15 {
      fill: #67686b;
      }

      .st16 {
      opacity: .7;
      }

      .st14 {
      fill: url(#linear-gradient);
      }

      .st17 {
      clip-path: url(#clippath);
      }

      .st18 {
      fill: #c4161c;
      }
    </style>
    <linearGradient id="linear-gradient" x1="190.7" y1="60.8" x2="199.5" y2="57.8" gradientUnits="userSpaceOnUse">
      <stop offset="0" stop-color="#000" stop-opacity="0"/>
      <stop offset="1" stop-color="#000"/>
    </linearGradient>
    <clipPath id="clippath">
      <path class="st0" d="M141,81.8c-7-22.5,3.8-23.1,3.8-23.1,4.6-.9,6.9,3.1,8.4,9.4l4.1,25.2c-13,2.9-10.9-11.7-16.3-11.5Z"/>
    </clipPath>
    <linearGradient id="linear-gradient1" x1="147.4" y1="71.6" x2="154" y2="69.4" xlink:href="#linear-gradient"/>
    <clipPath id="clippath-1">
      <path class="st0" d="M113.6,92.2c-4.8-15.6,2.6-15.9,2.6-15.9,3.2-.6,4.8,2.1,5.8,6.5l2.3,13.1c-7.7,1.7-4.7-3.8-10.7-3.6Z"/>
    </clipPath>
    <linearGradient id="linear-gradient2" x1="117.7" y1="85" x2="122.2" y2="83.5" xlink:href="#linear-gradient"/>
    <clipPath id="clippath-2">
      <path class="st0" d="M118.1,97.1c3.1,14.7-3.9,14.6-3.9,14.6-3,.4-4.2-2.2-4.8-6.3l-.3-7.1.6-5c7.8-1.2,6.3,3.7,8.5,3.8Z"/>
    </clipPath>
    <linearGradient id="linear-gradient3" x1="158.5" y1="457.1" x2="162.5" y2="455.8" gradientTransform="translate(243.5 600.6) rotate(-175.7) scale(1.1) skewX(-.4)" xlink:href="#linear-gradient"/>
    <clipPath id="clippath-3">
      <path class="st0" d="M146.5,98.7c3.5,16.5-4.4,16.4-4.4,16.4-3.4.4-4.8-2.5-5.4-7.1l.2-5.9.7-8.6c8.8-1.3,6.5,5.2,8.9,5.2Z"/>
    </clipPath>
    <linearGradient id="linear-gradient4" x1="132.6" y1="457.1" x2="137.4" y2="455.5" gradientTransform="translate(243.5 600.6) rotate(-175.7) scale(1.1) skewX(-.4)" xlink:href="#linear-gradient"/>
    <clipPath id="clippath-4">
      <path class="st0" d="M188.6,104.2c4.2,20.3-5.4,20.1-5.4,20.1-4.2.5-5.9-3.1-6.6-8.7l-.4-9.8.8-6.9c10.7-1.6,8.7,5.1,11.7,5.2Z"/>
    </clipPath>
    <linearGradient id="linear-gradient5" x1="94.2" y1="453.7" x2="100.1" y2="451.7" gradientTransform="translate(243.5 600.6) rotate(-175.7) scale(1.1) skewX(-.4)" xlink:href="#linear-gradient"/>
    <linearGradient id="linear-gradient6" x1="277.2" y1="81.6" x2="254.8" y2="81.6" xlink:href="#linear-gradient"/>
  </defs>
  <g class="st2">
    <g id="Layer_1">
      <g>
        <path class="st3" d="M314.8,108.2s-13.3,11.3-32.2,10.6c-16.2-.6-26.9-9.8-27.9-29.3h50.4c14-1.3,12.3-15,11.7-19.7-4-18.7-16.7-31.2-37.8-31.2s-45.7,18.7-45.7,47.7,19.6,47.9,48.4,47.6c7.8,0,15-2.2,22.8-7.4,10.8-7.2,10.3-18.1,10.3-18.1h0s-.1-.2-.1-.2ZM278.8,54.4c5.8,0,16.6,2.6,18.6,14.9,0,0,0,0,0,.1,0,.1,0,.2,0,.3.1,1.1,0,3.7-4.2,3.9h-37.8c2.7-15.1,16.3-19.4,23.3-19.3Z"/>
        <g>
          <g>
            <path class="st18" d="M162.9,58.4c.4-.6.2-1.3-1.2-1.7-.7-.2-2.3-.6-4.2-.7,0,0,0,0,0,0-1.3-.3-6.1-.6-10.4,1.2-5.2,2.1-5.9,3.7-7.1,13.2-.2,5.9,3.9,13,6.3,17.6,1.6,3,3.7,6,4.1,10.2,1.6-9.7,5.1-31.2,5.1-31.2,0-.2.1-.4.2-.6,0-.3.2-.6.3-.9.7-2.1,1.5-3.8,2.6-5,.3,0,.7.1,1.1.3,0,0,1.9-.9,2.9-1.9.3,0,.6,0,.9,0,0,0-.2-.2-.6-.5Z"/>
            <path class="st1" d="M139.1,75.1c-.3,3.2-1.4,15.6-1.5,16.9l-1.4,16.9c-.2.5-2.3-4-2.4-3.5-1,1.3-.6,3.3.4,5.2,1,3.3,3.4,5.7,5.7,5.2.9.3,1.8.3,2.6-.1,6.5-3.4,6.8-13.7,6.7-15.1-.2-5.1-4.2-9.8-6.2-13.9-1.6-3.3-3.6-8-4-11.5Z"/>
          </g>
          <path class="st18" d="M174,110.2c4.7-4.6,4.2-63.6,15.9-67.8,5.9-2.1,12.1-2.1,13.9-1.6,5.6,1.2,8,3.8,8,3.8-6.1-1.1.2,0-8,11.6-8.3,11.6-8,59.4-18.5,67.7-4.6,3.7-16-9.2-11.3-13.7Z"/>
          <path class="st1" d="M108.4,103.8l3-15.7c.3-1.7.6-3.3.7-3.5,0,0,1.2-7,5.2-9.4,2.9-1.8,6.8-1.2,7.8-.9,3.1.7,4.5,2.1,4.5,2.1-3.5-.6-5,2.3-6.2,6.9l-3,15.7c-.3,1.7-.6,3.3-.7,3.5,0,0-1.2,7-5.2,9.4-2.9,1.8-7.3-3.5-6.2-8.2Z"/>
          <path class="st15" d="M81.1,84.3c7.8,0,14.2,5.8,14.2,13.7s-6.3,13.8-14.2,13.8-14.1-5.8-14.1-13.8,6.3-13.7,14.1-13.7ZM81.1,107.5c5,0,9-3.9,9-9.4s-4.1-9.3-9-9.3-9,3.9-9,9.3,4,9.4,9,9.4Z"/>
          <path class="st15" d="M45.8,84.9c-2.1,0-2.9,1.1-2.9,2.7v.8h-.1s-1.9-4.1-8.4-4.1-11.5,5.6-11.5,13.1,4.5,13.4,11.7,13.4,6.3-1.5,7.8-4h.1s-.1.8-.1,1.7v1.8c0,5.3-3.7,7.3-8.3,7.3-5.3,0-8.1-1.8-8.1-1.8,0,0,.6,5.3,6.2,6.2.7,0,1.3.1,2,.1,6.6,0,13.2-3.3,13.2-12v-19.8s0,0,0,0v-5.3h-1.7ZM35.6,106.5c-4.7,0-7.6-3.7-7.6-9.2s2.6-8.7,7.2-8.7,7.4,2,7.4,8.8-3.4,9-7,9Z"/>
          <path class="st15" d="M62.1,84.9c-1.8.5-3.8,1.4-5.3,3.8-.5-1.6-1.7-3.4-4.5-3.3v25.9h5.1v-10.7c0-1.6.2-3.2.6-4.7,1.2-3.9,4.2-6.2,7.4-6.2s1.5.2,1.5.2c0,0,.2-5.7-4.8-4.8Z"/>
          <g class="st16">
            <path class="st14" d="M192.2,78.3c-7-1-15.1-18.1-5.4-33.5,0,0,6.1-6.8,11.6,3.6,5.5,10.3,1.4,17,1.4,17,0,0-3.6,13.4-7.6,12.9Z"/>
            <g class="st17">
              <path class="st9" d="M148.6,84.5c-5.3-.8-11.3-13.8-4.1-25.5,0,0,4.6-5.2,8.7,2.7,3.1,5.9-.2,22-.2,22,0,0-1.4,1.2-4.4.8Z"/>
            </g>
            <g class="st4">
              <path class="st8" d="M118.5,94.1c-3.6-.5-7.8-9.5-2.8-17.6,0,0,3.5-3.7,6,1.9,2.4,5.3,0,13.8,0,13.8,0,0-1.1,2.3-3.2,2Z"/>
            </g>
            <g class="st7">
              <path class="st10" d="M113.8,95.2c3.3.7,6.4,9.3,1,16.4,0,0-4,3.3-5.4-2.1-.8-3.1.8-16.9.8-16.9,0,0,1.8,2.2,3.7,2.6Z"/>
            </g>
            <g class="st5">
              <path class="st12" d="M141.1,96.4c3.8.8,8.8,10.3,2.7,18.4,0,0-6,3.8-7.6-2.2-.9-3.4.8-19,.8-19,0,0,2,2.4,4.1,2.9Z"/>
            </g>
            <g class="st6">
              <path class="st13" d="M182.1,101.4c4.6,1,10.7,12.7,3.3,22.6,0,0-7.4,4.6-9.4-2.8-1.1-4.2,1-23.4,1-23.4,0,0,2.4,3,5.1,3.5Z"/>
            </g>
            <path class="st11" d="M255.5,73.7s-1.5,6.4-.8,15.9h26c0,0-5.2-15.7-5.2-15.7h-19.9Z"/>
          </g>
          <path class="st3" d="M177.9,114.2s-6.9-44.4-7-44.7c0,0-1.6-9.3-6.9-12.4-2.6-1.6-5.6-2.3-9-2.2-7,.3-10,3.8-10,3.8,4.6-.8,6.7,3,8.2,9.2l6.1,40.1c.4,2.3.8,4.4.9,4.6,0,0,1.6,9.3,6.9,12.4,2.6,1.6,7.6,2.7,12,2,4.2-.7,6.9-3.6,6.9-3.6-4.9,2-6.7-3-8.2-9.2Z"/>
          <path class="st3" d="M229.7,100.4l-6.7-35.4c-.6-3.1-1.1-5.9-1.2-6.2,0,0-2.1-12.4-9.2-16.6-3.5-2.1-7.6-3.1-12-2.9-9.4.4-13.4,5.1-13.4,5.1,6.1-1.1,9,4.1,11,12.3l6.7,35.4c2.8,14.7,7.8,30.7,15.6,38.1,3.9,3.7,12.4,5.6,18.4,4.6,5.7-.9,8.3-3.2,8.3-3.2-9.1-2.6-15.4-23-17.3-31.2Z"/>
          <path class="st15" d="M110.6,106s-3.5-11.9-4.2-14c-.7-2.1-.9-5.4-4-7.3-2.3-1.4-5.3-.9-6.1-.7-2.4.5-3.5,1.7-3.5,1.7,2.7-.5,3.9,1.8,4.8,5.4,0,0,3.7,12.4,4.2,14,.5,1.6,1.5,5.6,4,7.3,2.2,1.4,5.3.9,6.1.7,2.4-.5,3.5-1.7,3.5-1.7-2.7.5-3.9-1.8-4.8-5.4Z"/>
          <path class="st15" d="M137.9,107.8l-3.7-19.9c-.3-1.7-.6-3.3-.7-3.5,0,0-1.2-7-5.2-9.4-2.9-1.8-6.8-1.2-7.8-.9-3.1.7-4.5,2.1-4.5,2.1,3.5-.6,5,2.3,6.2,6.9l3.7,19.9c.3,1.7.6,3.3.7,3.5,0,0,1.9,7.7,5.9,10,2.9,1.8,5.2,1.1,6.2.9,3.1-.7,5.5-2.8,5.5-2.8-3.5.6-5-2.3-6.2-6.9Z"/>
        </g>
        <path class="st0" d="M297.5,69.8c0-.1,0-.2,0-.3,0,0,0-.1,0-.1-2.1-12.3-12.9-14.8-18.6-14.9-7-.1-20.6,4.2-23.3,19.3h37.8c4.2-.2,4.3-2.8,4.2-3.9Z"/>
      </g>
    </g>
  </g>
</svg>